<svg xmlns="http://www.w3.org/2000/svg" width="28.713" height="23.904" viewBox="0 0 28.713 23.904">
  <g id="Group_88718" data-name="Group 88718" transform="translate(-183.644 -362.582)">
    <path id="Icon_awesome-user-edit" data-name="Icon awesome-user-edit" d="M14.07,12.921H13.32a7.81,7.81,0,0,1-6.541,0H6.03A6.031,6.031,0,0,0,0,18.951v1.866a2.154,2.154,0,0,0,2.154,2.154H14.487a2.154,2.154,0,0,1-.117-.956l.305-2.732.054-.5.354-.354,3.468-3.468a5.969,5.969,0,0,0-4.482-2.041ZM16.1,19.44,15.8,22.177a.714.714,0,0,0,.79.79l2.732-.305,6.187-6.187-3.217-3.217L16.1,19.44Zm12.3-7.376-1.7-1.7a1.075,1.075,0,0,0-1.516,0l-1.7,1.7-.184.184,3.221,3.217L28.4,13.585a1.08,1.08,0,0,0,0-1.521Z" transform="translate(183.644 363.514)" fill="rgba(216,99,99,0.7)"/>
    <path id="Icon_awesome-user-alt" data-name="Icon awesome-user-alt" d="M11.038,12.418A6.209,6.209,0,1,0,4.829,6.209,6.211,6.211,0,0,0,11.038,12.418Z" transform="translate(182.962 362.582)" fill="#d86363"/>
  </g>
</svg>
