<svg xmlns="http://www.w3.org/2000/svg" width="26.198" height="17.685" viewBox="0 0 26.198 17.685">
  <g id="Group_88719" data-name="Group 88719" transform="translate(-264.901 -365.874)">
    <path id="Icon_zocial-email" data-name="Icon zocial-email" d="M.072,20.186V5.634q0-.025.076-.48l8.564,7.326L.173,20.691a2.141,2.141,0,0,1-.1-.505Zm1.162,1.491,8.615-8.261,3.335,2.7,3.335-2.7,8.615,8.261a1.213,1.213,0,0,1-.429.076H1.638a1.144,1.144,0,0,1-.4-.076Zm16.421-9.2,8.539-7.326a1.508,1.508,0,0,1,.076.48V20.186a1.936,1.936,0,0,1-.076.505Z" transform="translate(264.829 361.806)" fill="rgba(99,188,216,0.7)"/>
    <path id="Icon_zocial-email-2" data-name="Icon zocial-email" d="M1.638,4.068H24.7a1.431,1.431,0,0,1,.455.076L16.569,11.5l-1.137.909-2.248,1.844L10.935,12.4,9.8,11.5S1.47,4.068,1.638,4.068Z" transform="translate(264.829 361.806)" fill="#63bcd8"/>
  </g>
</svg>
