<svg xmlns="http://www.w3.org/2000/svg" width="20.883" height="23.866" viewBox="0 0 20.883 23.866">
  <g id="Group_88709" data-name="Group 88709" transform="translate(-551.559 -413.067)">
    <path id="Icon_awesome-unlock-alt" data-name="Icon awesome-unlock-alt" d="M18.645,11.933H7.085V7.127A3.356,3.356,0,1,1,13.8,7.085v.746A1.116,1.116,0,0,0,14.916,8.95h1.492a1.116,1.116,0,0,0,1.119-1.119V7.085a7.085,7.085,0,1,0-14.17.07v4.778H2.237A2.238,2.238,0,0,0,0,14.17v7.458a2.238,2.238,0,0,0,2.237,2.237H18.645a2.238,2.238,0,0,0,2.237-2.237V14.17A2.238,2.238,0,0,0,18.645,11.933Zm-6.339,7.085a1.865,1.865,0,1,1-3.729,0V16.781a1.865,1.865,0,0,1,3.729,0Z" transform="translate(551.559 413.067)" fill="#d863a9"/>
    <path id="Icon_awesome-unlock-alt-2" data-name="Icon awesome-unlock-alt" d="M18.645,11.933H2.237A2.238,2.238,0,0,0,0,14.17v7.458a2.238,2.238,0,0,0,2.237,2.237H18.645a2.238,2.238,0,0,0,2.237-2.237V14.17A2.238,2.238,0,0,0,18.645,11.933Zm-6.339,7.085a1.865,1.865,0,1,1-3.729,0V16.781a1.865,1.865,0,0,1,3.729,0Z" transform="translate(551.559 413.067)" fill="#e391c2"/>
  </g>
</svg>
