<svg xmlns="http://www.w3.org/2000/svg" width="22.077" height="22.971" viewBox="0 0 22.077 22.971">
  <g id="Group_88720" data-name="Group 88720" transform="translate(-426.962 -363.067)">
    <path id="Icon_awesome-user-alt" data-name="Icon awesome-user-alt" d="M16.557,13.8H14.182a7.506,7.506,0,0,1-6.287,0H5.519A5.519,5.519,0,0,0,0,19.317v.69a2.07,2.07,0,0,0,2.07,2.07H20.007a2.07,2.07,0,0,0,2.07-2.07v-.69A5.519,5.519,0,0,0,16.557,13.8Z" transform="translate(426.962 363.962)" fill="rgba(122,110,228,0.7)"/>
    <path id="Icon_awesome-user-alt-2" data-name="Icon awesome-user-alt" d="M11.038,12.418A6.209,6.209,0,1,0,4.829,6.209,6.211,6.211,0,0,0,11.038,12.418Z" transform="translate(426.962 363.067)" fill="#7a6ee4"/>
  </g>
</svg>
